<?xml version="1.0" standalone="no"?>
<!DOCTYPE svg PUBLIC "-//W3C//DTD SVG 20010904//EN"
 "http://www.w3.org/TR/2001/REC-SVG-20010904/DTD/svg10.dtd">
<svg version="1.0" xmlns="http://www.w3.org/2000/svg"
 width="752.000000pt" height="621.000000pt" viewBox="0 0 752.000000 621.000000"
 preserveAspectRatio="xMidYMid meet">

<g transform="translate(0.000000,621.000000) scale(0.100000,-0.100000)"
fill="#000000" stroke="none">
<path d="M0 3105 l0 -3105 3760 0 3760 0 0 3105 0 3105 -3760 0 -3760 0 0
-3105z m3821 2521 c195 -35 359 -116 527 -263 l73 -63 78 0 c70 0 80 2 101 25
30 32 40 31 73 -3 l28 -29 -21 -26 c-26 -32 -39 -33 -73 -7 -19 15 -40 20 -86
20 -38 0 -61 -4 -61 -11 0 -6 17 -32 39 -58 48 -58 121 -162 121 -173 0 -16
-28 -8 -111 31 -122 57 -196 75 -314 74 -78 0 -112 -5 -153 -22 -55 -22 -112
-59 -112 -73 0 -4 100 -8 222 -8 l221 0 106 -105 106 -105 208 0 209 0 31 26
30 25 31 -30 31 -31 -32 -32 -31 -31 -32 26 -32 27 -212 0 c-200 0 -214 1
-231 20 -17 19 -31 20 -205 20 l-187 0 -45 -34 c-55 -42 -65 -62 -35 -70 55
-15 116 1 147 39 12 14 16 13 42 -11 34 -33 34 -41 6 -71 -27 -29 -33 -29 -70
2 -26 22 -39 25 -109 25 l-79 0 -89 -80 -89 -80 -86 0 c-101 0 -98 3 -116
-122 l-13 -87 48 -76 c26 -42 52 -74 57 -73 6 2 67 69 137 148 l127 145 384 3
c212 1 392 -1 400 -5 8 -5 -117 -10 -279 -13 -183 -3 -295 -9 -297 -15 -2 -5
30 -36 70 -67 l74 -58 134 0 c122 0 137 2 153 20 24 27 36 25 68 -8 l27 -28
-30 -29 -30 -29 -30 22 c-26 20 -41 22 -158 22 l-129 0 -114 85 c-112 84 -114
85 -171 85 l-58 0 -127 -146 c-71 -80 -129 -154 -131 -164 -2 -10 18 -52 44
-95 26 -43 50 -92 53 -109 7 -30 8 -31 72 -34 54 -2 69 1 89 18 23 20 23 20
37 0 13 -19 25 -20 169 -20 87 0 164 5 174 10 11 6 38 37 60 70 l41 60 274 0
c247 0 316 -6 269 -24 -9 -3 -132 -6 -274 -6 l-259 0 -41 -60 c-22 -33 -42
-61 -43 -62 -1 -1 -137 -5 -302 -8 l-300 -5 -32 -49 c-18 -26 -33 -54 -33 -62
0 -12 93 -14 565 -16 368 -2 565 -6 565 -13 0 -6 -205 -12 -585 -15 l-585 -5
-50 -78 c-28 -43 -48 -83 -45 -88 4 -5 111 -9 251 -9 156 0 244 -4 244 -10 0
-6 -93 -10 -257 -10 -142 0 -263 -4 -269 -8 -23 -15 -126 -183 -120 -197 4
-12 29 -15 123 -15 l117 0 71 75 70 75 199 0 200 0 28 27 28 27 30 -29 c17
-16 30 -31 30 -34 0 -3 -14 -21 -31 -39 l-31 -33 -27 25 -27 26 -201 0 -200 0
-62 -70 -63 -70 -152 0 -152 0 -37 -38 c-21 -21 -34 -42 -30 -46 27 -27 101
-46 180 -46 54 0 82 -4 78 -10 -3 -5 -42 -10 -85 -10 -62 0 -94 6 -144 26 -75
30 -58 37 -190 -76 -78 -66 -93 -84 -127 -155 -21 -44 -34 -84 -29 -89 7 -7
123 38 859 341 154 63 257 101 263 95 5 -5 -59 -72 -163 -168 -95 -87 -208
-191 -251 -231 -52 -48 -91 -75 -116 -82 -20 -5 -89 -21 -152 -36 -63 -15
-130 -32 -148 -38 -58 -20 -9 -26 233 -26 l230 -1 142 115 142 115 247 0 c241
0 248 1 271 22 l24 22 31 -31 c31 -31 31 -32 14 -58 -26 -40 -44 -41 -80 -6
l-32 31 -231 0 -232 0 -58 -48 c-32 -27 -96 -79 -143 -116 l-85 -68 -495 5
c-272 3 -511 9 -530 14 -33 8 -37 15 -101 158 -37 83 -94 209 -126 280 -118
256 -173 417 -193 567 -13 89 -8 139 32 331 l20 97 -31 74 c-17 41 -31 79 -31
85 0 6 18 50 39 98 30 66 43 111 51 178 24 200 98 467 163 589 43 83 103 140
223 214 203 125 429 208 639 235 74 10 297 5 366 -7z m-1662 -3173 c18 -15 29
-55 61 -226 22 -115 38 -213 34 -218 -10 -17 -34 -9 -43 14 -4 12 -11 43 -15
70 l-7 47 -75 0 c-51 0 -76 -4 -79 -12 -2 -7 -9 -39 -15 -70 -9 -46 -15 -58
-30 -58 -10 0 -21 3 -23 8 -3 4 14 102 37 219 33 170 45 215 61 227 27 21 68
20 94 -1z m959 -1 c14 -14 29 -73 55 -209 43 -223 45 -243 18 -243 -20 0 -25
9 -36 70 -14 73 -10 70 -89 70 l-73 0 -14 -67 c-12 -58 -17 -68 -36 -71 -30
-4 -30 -5 17 233 32 163 44 203 61 218 28 22 74 22 97 -1z m2730 -2 c12 -12
22 -24 22 -28 0 -4 16 -90 35 -192 41 -218 42 -230 15 -230 -21 0 -25 10 -38
90 l-7 45 -77 3 -76 3 -12 -58 c-6 -32 -13 -64 -15 -70 -6 -18 -45 -16 -45 1
0 8 18 106 40 218 32 166 43 206 61 221 28 23 70 22 97 -3z m-4292 -74 c22
-79 34 -96 67 -96 34 0 56 20 67 63 27 109 30 117 52 117 19 0 20 -4 15 -42
-14 -95 -36 -148 -73 -170 l-34 -20 0 -110 c0 -108 0 -109 -22 -106 -22 3 -23
7 -26 116 -2 83 -6 112 -16 112 -27 0 -58 50 -77 124 -20 80 -18 99 9 94 11
-2 24 -29 38 -82z m1095 61 c96 -64 84 -199 -21 -241 -22 -9 -58 -16 -80 -16
l-40 0 0 -69 c0 -82 -6 -101 -31 -101 -18 0 -19 11 -19 225 l0 225 79 0 c65 0
84 -4 112 -23z m818 -14 c5 -21 13 -51 17 -68 11 -51 32 -75 64 -75 32 0 53
24 64 75 21 90 27 105 46 105 10 0 21 -4 24 -8 3 -5 -5 -47 -17 -93 -20 -76
-26 -86 -59 -108 l-38 -24 0 -109 c0 -99 -2 -108 -19 -108 -26 0 -31 18 -31
128 l-1 97 -32 20 c-28 18 -35 32 -54 104 -12 47 -20 88 -17 93 3 4 14 8 24 8
14 0 22 -11 29 -37z m1060 10 c14 -17 19 -33 15 -47 -4 -12 -51 -87 -106 -168
-55 -81 -97 -152 -93 -158 3 -6 44 -10 95 -10 93 0 119 -11 84 -37 -14 -11
-41 -14 -108 -11 -78 4 -91 7 -107 27 -11 13 -19 31 -19 40 0 9 47 86 104 171
57 85 102 158 99 163 -2 4 -42 7 -87 7 -61 0 -87 4 -96 15 -22 27 0 35 100 35
95 0 99 -1 119 -27z m441 8 c0 -25 -19 -31 -101 -31 l-69 0 0 -65 0 -65 55 0
c42 0 57 -4 62 -16 8 -23 -14 -34 -69 -34 l-48 0 0 -90 0 -90 85 0 c77 0 85
-2 85 -19 0 -10 -7 -22 -16 -25 -20 -8 -168 -8 -188 0 -14 5 -16 35 -16 230
l0 224 110 0 c101 0 110 -2 110 -19z m250 -71 l5 -85 33 -3 c46 -5 66 17 82
86 7 31 16 65 21 75 10 18 34 23 43 9 6 -11 -33 -163 -46 -179 -7 -9 -7 -17 0
-25 5 -7 29 -59 52 -116 31 -74 40 -106 32 -114 -21 -21 -40 2 -77 94 -20 51
-41 99 -47 106 -6 6 -30 12 -54 12 l-44 0 0 -111 c0 -109 0 -110 -22 -107 -23
3 -23 4 -26 213 -1 115 0 216 3 223 3 7 13 12 22 10 15 -3 19 -17 23 -88z
m-440 -660 c0 -19 49 -23 75 -6 31 21 35 20 35 -3 0 -46 -84 -67 -120 -31 -24
24 -26 50 -5 50 8 0 15 -4 15 -10z m113 -95 c17 -3 27 -12 27 -24 0 -16 -7
-18 -68 -13 -67 4 -69 4 -95 -28 -23 -26 -27 -41 -27 -90 0 -33 5 -71 12 -85
13 -28 55 -55 87 -55 41 0 51 11 51 56 0 42 -1 44 -30 44 -23 0 -30 4 -30 20
0 18 7 20 55 20 l56 0 -3 -82 -3 -83 -58 -9 c-116 -19 -197 49 -197 164 1 91
50 156 128 170 37 6 45 6 95 -5z m-2586 -22 c3 -7 -10 -13 -34 -15 l-38 -3 -5
-145 c-3 -87 -9 -145 -15 -145 -6 0 -12 58 -15 145 l-5 145 -37 3 c-26 2 -38
8 -38 18 0 12 16 14 92 12 59 -2 93 -7 95 -15z m340 2 c28 -20 43 -73 43 -150
0 -91 -15 -133 -54 -152 -45 -21 -99 -11 -126 24 -17 22 -20 40 -20 130 0 102
1 105 29 134 34 33 91 40 128 14z m374 -14 c31 -31 39 -83 19 -122 -15 -26
-62 -49 -104 -49 l-35 0 -3 -62 c-2 -35 -7 -63 -13 -63 -6 0 -11 63 -13 163
l-2 162 61 0 c54 0 64 -3 90 -29z m247 -119 l3 -141 57 -3 c43 -2 57 -7 57
-18 0 -11 -14 -16 -54 -18 -106 -6 -101 -14 -101 162 0 84 3 156 7 160 21 21
28 -10 31 -142z m342 22 c0 -69 5 -134 10 -145 12 -22 78 -27 98 -7 8 8 12 52
12 133 0 119 7 154 29 141 7 -5 11 -52 11 -135 0 -114 -2 -131 -20 -154 -37
-47 -135 -44 -160 4 -6 10 -10 79 -10 153 0 114 2 136 15 136 13 0 15 -21 15
-126z m374 110 c3 -9 6 -74 6 -144 l0 -129 58 -3 c43 -2 57 -7 57 -18 0 -12
-15 -15 -75 -15 l-75 0 -3 150 c-1 82 0 155 2 162 7 18 23 16 30 -3z m346
-120 c3 -71 9 -135 13 -141 11 -17 82 -17 95 0 7 8 13 68 14 143 3 107 6 129
18 129 12 0 15 -22 18 -131 2 -119 1 -133 -18 -157 -43 -55 -140 -43 -166 19
-15 35 -20 254 -7 268 21 20 28 -10 33 -130z m828 1 c1 -74 7 -134 14 -142 6
-7 27 -13 48 -13 21 0 42 6 48 13 7 8 13 68 14 143 3 107 6 129 18 129 13 0
15 -22 15 -136 0 -120 -2 -140 -19 -158 -42 -46 -133 -35 -161 20 -16 29 -22
259 -8 273 21 21 28 -10 31 -129z m-2600 -573 c5 -17 -27 -27 -41 -13 -9 9 -8
14 3 21 18 11 32 8 38 -8z m992 -7 c0 -9 -10 -13 -27 -11 -35 5 -35 5 -30 14
9 13 57 11 57 -3z m-970 -56 c0 -6 -7 -17 -15 -25 -11 -11 -15 -37 -15 -93 0
-58 4 -82 15 -91 26 -22 16 -30 -37 -30 -49 0 -50 1 -35 18 24 26 25 197 1
206 -8 3 -12 10 -9 16 8 13 95 13 95 -1z m900 -100 l5 -104 28 -3 c49 -6 57
10 57 120 0 75 3 99 13 96 8 -3 13 -36 15 -106 2 -91 1 -103 -18 -122 -25 -25
-86 -27 -112 -3 -15 14 -18 32 -18 125 0 83 3 109 13 106 8 -3 14 -38 17 -109z
m1108 67 c2 -21 10 -40 18 -43 18 -7 18 -23 -1 -23 -11 0 -15 -16 -17 -67 -2
-53 -6 -68 -18 -68 -12 0 -16 15 -18 68 -2 51 -6 67 -17 67 -20 0 -19 16 0 24
9 3 15 18 15 39 0 61 33 64 38 3z m-1708 -12 c0 -6 -11 -11 -25 -11 -14 0 -25
5 -25 11 0 6 11 11 25 11 14 0 25 -5 25 -11z m306 -11 c-10 -10 -19 5 -10 18
6 11 8 11 12 0 2 -7 1 -15 -2 -18z m44 6 c0 -5 -7 -9 -15 -9 -15 0 -20 12 -9
23 8 8 24 -1 24 -14z m598 0 c-2 -6 -8 -10 -13 -10 -5 0 -11 4 -13 10 -2 6 4
11 13 11 9 0 15 -5 13 -11z m660 0 c-2 -6 -8 -10 -13 -10 -5 0 -11 4 -13 10
-2 6 4 11 13 11 9 0 15 -5 13 -11z m522 1 c0 -5 -7 -10 -15 -10 -8 0 -15 5
-15 10 0 6 7 10 15 10 8 0 15 -4 15 -10z m-2281 -64 c27 -24 31 -126 6 -126
-11 0 -15 11 -15 41 0 50 -15 79 -40 79 -25 0 -40 -29 -40 -79 0 -30 -4 -41
-15 -41 -12 0 -15 14 -15 68 0 38 2 71 5 74 14 13 94 2 114 -16z m176 -1 c50
-49 18 -125 -51 -125 -38 0 -74 38 -74 77 0 32 42 73 75 73 14 0 37 -11 50
-25z m176 -4 c24 -30 27 -121 4 -121 -11 0 -15 11 -15 41 0 50 -15 79 -40 79
-25 0 -40 -29 -40 -79 0 -30 -4 -41 -15 -41 -12 0 -15 14 -15 68 0 38 2 71 5
74 4 3 26 5 52 4 34 -1 50 -7 64 -25z m81 -22 c6 -97 70 -96 76 0 5 80 26 60
30 -27 l3 -72 -51 0 c-67 0 -90 22 -90 88 0 27 3 52 7 55 15 16 22 4 25 -44z
m579 32 c19 -15 23 -29 24 -72 0 -42 -3 -54 -15 -54 -11 0 -16 15 -20 55 -4
42 -9 56 -23 58 -31 6 -47 -17 -47 -69 0 -37 -4 -49 -15 -49 -12 0 -15 15 -15
73 l0 73 44 2 c31 1 52 -4 67 -17z m87 -59 c2 -60 0 -72 -13 -72 -12 0 -15 14
-15 76 0 56 3 75 13 72 8 -3 13 -30 15 -76z m76 20 c6 -29 16 -53 21 -53 6 0
15 24 20 53 7 35 15 53 25 53 11 0 14 -9 12 -34 -7 -65 -25 -106 -50 -109 -32
-5 -49 12 -56 56 -4 20 -9 50 -12 65 -5 24 -3 28 12 25 13 -2 21 -18 28 -56z
m222 33 c40 -40 29 -59 -34 -63 -36 -2 -52 -7 -49 -15 2 -7 21 -11 46 -10 28
1 41 -2 41 -12 0 -31 -74 -34 -107 -3 -31 29 -30 72 2 103 31 32 69 32 101 0z
m161 13 c20 -16 5 -28 -26 -22 -36 7 -51 -15 -51 -75 0 -30 -4 -41 -15 -41
-12 0 -15 14 -15 68 0 38 2 71 5 73 9 10 90 8 102 -3z m124 -9 c16 -16 18 -24
9 -32 -8 -9 -15 -8 -24 6 -14 18 -41 23 -50 8 -3 -5 12 -16 33 -24 45 -19 55
-37 35 -66 -28 -39 -104 -23 -104 21 0 22 18 24 26 3 7 -16 54 -21 54 -6 0 5
-17 18 -37 28 -43 20 -54 50 -27 70 26 19 61 16 85 -8z m77 -57 c2 -60 0 -72
-13 -72 -12 0 -15 14 -15 76 0 56 3 75 13 72 8 -3 13 -30 15 -76z m272 68 c11
-6 24 -20 30 -31 17 -31 -4 -49 -57 -49 -31 0 -43 -4 -40 -12 2 -8 20 -12 46
-11 42 2 50 -4 29 -25 -19 -19 -76 -14 -98 8 -58 58 18 159 90 120z m171 -11
c16 -16 18 -24 9 -32 -8 -9 -15 -8 -24 6 -14 18 -41 23 -50 8 -3 -5 12 -16 33
-24 21 -9 41 -23 45 -33 10 -25 -22 -54 -59 -54 -35 0 -55 15 -55 42 0 22 18
24 26 3 7 -16 54 -21 54 -6 0 5 -17 18 -37 28 -43 20 -52 43 -28 67 23 22 61
20 86 -5z m77 -57 c2 -57 0 -72 -11 -72 -19 0 -27 22 -27 75 0 102 34 99 38
-3z"/>
<path d="M3472 5600 c-157 -20 -361 -84 -523 -165 -99 -50 -244 -151 -277
-193 -84 -107 -155 -323 -197 -601 -8 -52 -12 -98 -9 -103 3 -4 74 -8 159 -8
l153 0 184 258 184 257 240 5 240 5 129 115 c72 63 139 122 149 130 15 12 63
16 230 20 l211 5 -60 48 c-129 102 -291 180 -447 212 -89 19 -273 26 -366 15z"/>
<path d="M4623 5304 c-7 -19 11 -39 26 -30 16 10 13 33 -4 40 -9 3 -18 -1 -22
-10z"/>
<path d="M3819 5163 l-122 -108 78 -3 c61 -2 82 1 102 15 136 96 201 117 351
111 90 -3 123 -10 209 -40 l102 -35 -20 28 c-11 16 -43 53 -70 84 l-51 55
-228 0 -229 0 -122 -107z"/>
<path d="M3849 4983 c-43 -46 -69 -83 -69 -100 0 -10 74 -13 355 -13 290 0
355 2 355 13 0 8 -29 42 -64 75 l-64 62 -239 0 -239 0 -35 -37z"/>
<path d="M3127 4933 c-25 -38 -99 -142 -165 -233 -66 -91 -117 -168 -115 -172
2 -5 43 -8 91 -8 l87 1 94 119 94 120 238 0 c217 0 237 1 242 18 2 9 8 25 12
35 7 16 -3 17 -119 17 l-125 0 -58 47 c-32 26 -79 64 -104 85 -36 30 -54 38
-86 38 -38 0 -42 -3 -86 -67z"/>
<path d="M3350 4986 c8 -8 39 -35 69 -60 l55 -46 130 0 131 1 37 59 37 60
-236 0 c-204 0 -235 -2 -223 -14z"/>
<path d="M3739 4801 c-10 -22 -14 -42 -11 -45 3 -3 66 -6 139 -6 l134 0 45 37
c24 21 44 41 44 45 0 4 -75 8 -167 8 l-168 0 -16 -39z"/>
<path d="M5045 4831 c-8 -15 3 -31 21 -31 9 0 14 7 12 17 -4 20 -24 28 -33 14z"/>
<path d="M4225 4750 c-4 -6 -1 -17 5 -26 10 -11 16 -12 26 -3 11 9 11 15 3 25
-14 17 -25 18 -34 4z"/>
<path d="M3700 4694 c-6 -14 -13 -43 -16 -65 l-7 -39 76 0 75 0 68 65 69 64
-128 1 -127 0 -10 -26z"/>
<path d="M3165 4623 c-38 -49 -82 -102 -98 -120 l-30 -32 -112 6 c-124 7 -130
4 -170 -71 l-18 -33 45 -74 44 -74 56 -3 55 -3 158 191 159 190 188 0 c211 0
194 -6 213 78 l7 32 -215 0 -214 0 -68 -87z"/>
<path d="M3219 4488 c-33 -40 -47 -64 -38 -65 8 -1 84 -7 169 -13 85 -6 176
-13 201 -16 l46 -6 6 48 c3 27 9 64 13 82 l7 32 -176 0 -175 0 -53 -62z"/>
<path d="M2423 4430 c-24 -56 -19 -60 40 -35 24 10 69 15 131 15 90 0 95 1
115 26 12 15 21 31 21 35 0 5 -64 9 -143 9 l-143 0 -21 -50z"/>
<path d="M3167 4373 c-3 -4 7 -26 22 -47 l27 -39 90 2 c56 1 107 -4 139 -13
28 -9 55 -16 60 -16 16 0 68 71 59 80 -5 5 -70 14 -144 19 -74 6 -160 13 -192
16 -31 3 -59 2 -61 -2z"/>
<path d="M2433 4338 c-29 -11 -53 -26 -53 -32 0 -17 34 -96 42 -96 3 0 23 23
43 50 l37 50 74 0 c56 0 85 -5 115 -21 23 -11 43 -18 46 -16 2 3 -7 24 -21 46
l-26 41 -103 -1 c-76 -1 -115 -6 -154 -21z"/>
<path d="M3052 4294 c-70 -86 -71 -90 -26 -109 47 -19 60 -15 112 38 l42 43
-30 47 c-16 26 -33 47 -37 46 -5 0 -32 -30 -61 -65z"/>
<path d="M4653 4344 c-7 -19 11 -39 26 -30 16 10 13 33 -4 40 -9 3 -18 -1 -22
-10z"/>
<path d="M3582 4283 c-18 -23 -32 -44 -32 -48 0 -19 40 -34 88 -35 l53 0 -23
38 c-13 21 -30 49 -39 62 l-15 23 -32 -40z"/>
<path d="M2492 4236 c-18 -24 -32 -49 -32 -54 0 -5 15 -21 34 -36 29 -21 45
-26 95 -26 51 0 69 5 120 36 34 20 61 40 61 44 0 4 -31 24 -69 44 -55 29 -80
36 -123 36 -53 0 -56 -1 -86 -44z"/>
<path d="M3286 4228 c-14 -19 -26 -40 -26 -46 0 -5 14 -22 32 -37 30 -26 36
-27 101 -20 81 8 157 46 137 69 -18 22 -101 54 -161 61 -56 7 -57 7 -83 -27z"/>
<path d="M3203 4224 c-11 -29 13 -37 31 -10 16 25 16 26 -4 26 -11 0 -23 -7
-27 -16z"/>
<path d="M2815 4123 c-9 -32 -39 -130 -66 -217 -27 -88 -49 -164 -49 -169 0
-10 167 -3 178 8 6 6 40 338 41 403 1 31 0 32 -43 32 l-45 0 -16 -57z"/>
<path d="M3127 4152 l-27 -28 0 -252 c0 -139 2 -252 5 -252 3 0 67 41 143 90
l139 90 156 0 155 0 31 50 c17 28 31 52 31 55 0 3 -38 5 -84 5 l-84 0 -56 64
-56 64 -96 4 -96 3 -61 68 c-34 37 -65 67 -68 67 -3 0 -17 -13 -32 -28z"/>
<path d="M2965 4148 c-2 -7 -11 -104 -21 -216 l-18 -202 35 -36 c19 -20 46
-45 62 -56 l27 -19 0 255 0 255 -30 16 c-35 18 -49 19 -55 3z"/>
<path d="M3555 4105 l-26 -46 43 -49 43 -49 93 -1 c69 0 94 3 98 14 3 7 -16
50 -43 95 l-47 81 -67 0 -67 0 -27 -45z"/>
<path d="M3480 4100 c0 -5 5 -10 10 -10 6 0 10 5 10 10 0 6 -4 10 -10 10 -5 0
-10 -4 -10 -10z"/>
<path d="M2402 3987 c-30 -139 -28 -219 7 -358 28 -113 106 -321 177 -474 l37
-80 38 45 c22 25 39 50 38 55 0 6 -22 27 -50 48 -27 20 -49 43 -49 51 0 19
138 146 158 146 9 0 30 -5 47 -11 25 -10 41 -9 76 3 l44 15 167 -73 c91 -40
177 -76 190 -79 41 -10 124 68 196 184 34 54 62 102 62 106 0 6 -53 70 -135
163 -9 10 -44 -7 -170 -88 l-159 -100 -176 0 c-156 0 -179 2 -192 18 -24 26
-68 119 -68 141 0 10 25 101 55 200 30 100 55 184 55 187 0 3 -16 -8 -35 -25
-34 -30 -39 -31 -128 -31 -91 0 -94 1 -122 30 -16 17 -31 30 -35 30 -3 0 -15
-46 -28 -103z"/>
<path d="M3460 3743 c0 -11 100 -123 109 -123 8 0 20 16 75 103 l18 27 -101 0
c-55 0 -101 -3 -101 -7z"/>
<path d="M2797 3689 c-49 -4 -91 -10 -94 -13 -4 -3 2 -24 12 -46 l18 -40 141
0 141 1 -60 54 c-33 30 -62 54 -65 53 -3 0 -45 -4 -93 -9z"/>
<path d="M4283 3484 c-9 -23 11 -38 26 -20 13 16 7 36 -10 36 -5 0 -12 -7 -16
-16z"/>
<path d="M2727 3343 l-26 -28 182 -1 182 -1 -65 30 c-60 27 -69 29 -118 19
-35 -7 -62 -8 -78 -2 -38 15 -48 13 -77 -17z"/>
<path d="M2743 3271 c-28 -3 -54 -9 -57 -12 -3 -3 9 -16 27 -30 28 -21 45 -24
129 -27 85 -3 108 0 180 24 74 24 80 28 56 35 -41 11 -276 18 -335 10z"/>
<path d="M3745 3129 c-159 -66 -386 -159 -502 -207 -117 -48 -213 -90 -213
-94 0 -18 64 -78 84 -78 11 0 134 27 273 59 l251 59 168 153 c92 85 183 168
203 186 20 17 34 33 31 36 -3 3 -135 -49 -295 -114z"/>
<path d="M3105 3208 c-49 -17 -92 -32 -94 -34 -6 -5 63 -84 74 -84 12 0 158
125 163 140 6 18 -51 9 -143 -22z"/>
<path d="M2728 3134 c-36 -39 -53 -64 -42 -64 3 0 33 7 66 16 51 13 75 13 153
3 51 -6 98 -10 105 -7 6 2 -5 22 -25 46 l-37 42 -94 0 -94 0 -32 -36z"/>
<path d="M2720 3041 c-77 -21 -78 -24 -28 -128 l33 -68 65 3 c36 1 92 5 126 8
l60 5 37 81 c20 45 35 84 32 87 -8 7 -173 30 -220 29 -22 0 -69 -8 -105 -17z"/>
<path d="M4597 2954 c-14 -14 -7 -35 11 -32 9 2 17 10 17 17 0 16 -18 25 -28
15z"/>
<path d="M2843 2811 c-50 -3 -94 -9 -97 -12 -3 -3 0 -14 8 -24 11 -15 33 -19
147 -25 74 -3 136 -5 138 -3 11 8 -65 73 -83 71 -12 -1 -62 -4 -113 -7z"/>
<path d="M2090 2417 c0 -3 -9 -49 -20 -102 -11 -53 -20 -103 -20 -111 0 -10
15 -14 60 -14 59 0 60 1 60 28 -1 15 -9 65 -18 112 -15 74 -21 85 -40 88 -12
2 -22 1 -22 -1z"/>
<path d="M3045 2408 c-9 -29 -35 -172 -35 -194 0 -23 3 -24 60 -24 33 0 60 3
60 8 0 4 -9 54 -20 112 -11 58 -20 106 -20 107 0 10 -41 1 -45 -9z"/>
<path d="M5775 2408 c-11 -35 -41 -208 -37 -213 10 -9 122 -5 122 5 0 5 -9 56
-20 112 -11 57 -20 104 -20 106 0 9 -41 0 -45 -10z"/>
<path d="M2510 2320 l0 -90 49 0 c62 0 99 28 107 81 5 28 1 41 -21 67 -24 29
-32 32 -81 32 l-54 0 0 -90z"/>
<path d="M2548 1569 c-15 -9 -18 -26 -18 -117 0 -71 4 -112 12 -120 7 -7 29
-12 50 -12 50 0 58 18 58 134 0 87 -2 96 -22 110 -26 18 -55 20 -80 5z"/>
<path d="M2907 1573 c-4 -3 -7 -33 -7 -65 l0 -58 44 0 c72 0 100 57 51 105
-23 24 -73 34 -88 18z"/>
<path d="M2826 704 c-19 -18 -20 -28 -6 -55 15 -28 58 -25 71 5 22 49 -28 88
-65 50z"/>
<path d="M4050 705 c-11 -13 -8 -15 25 -15 25 0 35 4 33 13 -7 18 -43 20 -58
2z"/>
<path d="M4703 713 c-26 -10 -12 -23 23 -23 31 0 35 2 24 15 -13 15 -25 17
-47 8z"/>
</g>
</svg>
